REM DIRINDEX 1\2,1\4,1\5,1\6,1\7,1\3\8,1\3\9,1\3\10
REM DIRNAME folder01,folder02,folder03,folder04,folder05,folder06,folder07,folder08,folder09,folder10
TITLE ""
FILE "DB4500_5th_3B_10.mp3" MP3
  TRACK 01 AUDIO
    TITLE "8:cjc113_2165"
    INDEX 01 00:00:00
  TRACK 02 AUDIO
    TITLE "0:"
    INDEX 01 00:01:28
  TRACK 03 AUDIO
    TITLE "9:cjc113_2166"
    INDEX 01 00:01:52
  TRACK 04 AUDIO
    TITLE "0:"
    INDEX 01 00:03:17
  TRACK 05 AUDIO
    TITLE "10:cjc113_2167"
    INDEX 01 00:03:39
  TRACK 06 AUDIO
    TITLE "0:"
    INDEX 01 00:06:61
  TRACK 07 AUDIO
    TITLE "8:cjc113_2168"
    INDEX 01 00:07:35
  TRACK 08 AUDIO
    TITLE "0:"
    INDEX 01 00:08:60
  TRACK 09 AUDIO
    TITLE "9:cjc113_2169"
    INDEX 01 00:09:10
  TRACK 10 AUDIO
    TITLE "0:"
    INDEX 01 00:10:39
  TRACK 11 AUDIO
    TITLE "10:cjc113_2170"
    INDEX 01 00:10:63
  TRACK 12 AUDIO
    TITLE "0:"
    INDEX 01 00:14:06
  TRACK 13 AUDIO
    TITLE "8:cjc113_2171"
    INDEX 01 00:14:53
  TRACK 14 AUDIO
    TITLE "0:"
    INDEX 01 00:15:66
  TRACK 15 AUDIO
    TITLE "9:cjc113_2172"
    INDEX 01 00:16:14
  TRACK 16 AUDIO
    TITLE "0:"
    INDEX 01 00:17:29
  TRACK 17 AUDIO
    TITLE "10:cjc113_2173"
    INDEX 01 00:17:51
  TRACK 18 AUDIO
    TITLE "0:"
    INDEX 01 00:21:09
  TRACK 19 AUDIO
    TITLE "8:cjc113_2174"
    INDEX 01 00:21:64
  TRACK 20 AUDIO
    TITLE "0:"
    INDEX 01 00:23:08
  TRACK 21 AUDIO
    TITLE "9:cjc113_2175"
    INDEX 01 00:23:32
  TRACK 22 AUDIO
    TITLE "0:"
    INDEX 01 00:24:57
  TRACK 23 AUDIO
    TITLE "10:cjc113_2176"
    INDEX 01 00:24:74
  TRACK 24 AUDIO
    TITLE "0:"
    INDEX 01 00:29:13
  TRACK 25 AUDIO
    TITLE "8:cjc113_2177"
    INDEX 01 00:29:62
  TRACK 26 AUDIO
    TITLE "0:"
    INDEX 01 00:31:12
  TRACK 27 AUDIO
    TITLE "9:cjc113_2178"
    INDEX 01 00:31:35
  TRACK 28 AUDIO
    TITLE "0:"
    INDEX 01 00:32:58
  TRACK 29 AUDIO
    TITLE "10:cjc113_2179"
    INDEX 01 00:33:07
  TRACK 30 AUDIO
    TITLE "0:"
    INDEX 01 00:35:45
  TRACK 31 AUDIO
    TITLE "8:cjc113_2180"
    INDEX 01 00:36:17
  TRACK 32 AUDIO
    TITLE "0:"
    INDEX 01 00:37:32
  TRACK 33 AUDIO
    TITLE "9:cjc113_2181"
    INDEX 01 00:37:56
  TRACK 34 AUDIO
    TITLE "0:"
    INDEX 01 00:39:11
  TRACK 35 AUDIO
    TITLE "10:cjc113_2182"
    INDEX 01 00:39:35
  TRACK 36 AUDIO
    TITLE "0:"
    INDEX 01 00:43:01
  TRACK 37 AUDIO
    TITLE "8:cjc113_2183"
    INDEX 01 00:43:46
  TRACK 38 AUDIO
    TITLE "0:"
    INDEX 01 00:45:00
  TRACK 39 AUDIO
    TITLE "9:cjc113_2184"
    INDEX 01 00:45:20
  TRACK 40 AUDIO
    TITLE "0:"
    INDEX 01 00:46:66
  TRACK 41 AUDIO
    TITLE "10:cjc113_2185"
    INDEX 01 00:47:15
  TRACK 42 AUDIO
    TITLE "0:"
    INDEX 01 00:49:65
  TRACK 43 AUDIO
    TITLE "8:cjc113_2186"
    INDEX 01 00:50:39
  TRACK 44 AUDIO
    TITLE "0:"
    INDEX 01 00:51:69
  TRACK 45 AUDIO
    TITLE "9:cjc113_2187"
    INDEX 01 00:52:14
  TRACK 46 AUDIO
    TITLE "0:"
    INDEX 01 00:53:49
  TRACK 47 AUDIO
    TITLE "10:cjc113_2188"
    INDEX 01 00:53:72
  TRACK 48 AUDIO
    TITLE "0:"
    INDEX 01 00:57:39
  TRACK 49 AUDIO
    TITLE "8:cjc113_2189"
    INDEX 01 00:58:13
  TRACK 50 AUDIO
    TITLE "0:"
    INDEX 01 00:59:14
  TRACK 51 AUDIO
    TITLE "9:cjc113_2190"
    INDEX 01 00:59:38
  TRACK 52 AUDIO
    TITLE "0:"
    INDEX 01 01:01:27
  TRACK 53 AUDIO
    TITLE "10:cjc113_2191"
    INDEX 01 01:01:52
  TRACK 54 AUDIO
    TITLE "0:"
    INDEX 01 01:04:31
  TRACK 55 AUDIO
    TITLE "8:cjc113_2192"
    INDEX 01 01:05:05
  TRACK 56 AUDIO
    TITLE "0:"
    INDEX 01 01:06:08
  TRACK 57 AUDIO
    TITLE "9:cjc113_2193"
    INDEX 01 01:06:32
  TRACK 58 AUDIO
    TITLE "0:"
    INDEX 01 01:08:01
  TRACK 59 AUDIO
    TITLE "10:cjc113_2194"
    INDEX 01 01:08:23
  TRACK 60 AUDIO
    TITLE "0:"
    INDEX 01 01:11:25
  TRACK 61 AUDIO
    TITLE "8:cjc113_2195"
    INDEX 01 01:11:72
  TRACK 62 AUDIO
    TITLE "0:"
    INDEX 01 01:13:14
  TRACK 63 AUDIO
    TITLE "9:cjc113_2196"
    INDEX 01 01:13:38
  TRACK 64 AUDIO
    TITLE "0:"
    INDEX 01 01:14:72
  TRACK 65 AUDIO
    TITLE "10:cjc113_2197"
    INDEX 01 01:15:21
  TRACK 66 AUDIO
    TITLE "0:"
    INDEX 01 01:19:66
